<svg xmlns="http://www.w3.org/2000/svg" version="1.1" xmlns:xlink="http://www.w3.org/1999/xlink"
    xmlns:svgjs="http://svgjs.com/svgjs" width="512" height="512" x="0" y="0" viewBox="0 0 512 512"
    style="enable-background:new 0 0 512 512" xml:space="preserve">
    <g>
        <path xmlns="http://www.w3.org/2000/svg"
            d="m501.6 116.18-115.48-107.44a32.64 32.64 0 0 0 -22.24-8.74h-241a32.68 32.68 0 0 0 -32.61 32.64v155h-57.63a32.67 32.67 0 0 0 -32.64 32.63v113a32.67 32.67 0 0 0 32.64 32.73h57.63v113.4a32.68 32.68 0 0 0 32.65 32.6h356.44a32.67 32.67 0 0 0 32.64-32.64v-339.28a32.78 32.78 0 0 0 -10.4-23.9zm-13.94 5.82h-87.89a18.92 18.92 0 0 1 -18.9-18.9v-80.46zm-473.92 211.32v-113a18.92 18.92 0 0 1 18.9-18.9h323.36a18.92 18.92 0 0 1 18.9 18.9v113a18.92 18.92 0 0 1 -18.9 18.9h-323.36a18.92 18.92 0 0 1 -18.9-18.9zm484.52 146a18.91 18.91 0 0 1 -18.9 18.89h-356.44a18.91 18.91 0 0 1 -18.92-18.85v-113.36h252a32.67 32.67 0 0 0 32.64-32.64v-113a32.67 32.67 0 0 0 -32.64-32.73h-252v-155a18.91 18.91 0 0 1 18.9-18.89h241a18.53 18.53 0 0 1 3.25.29v89.05a32.67 32.67 0 0 0 32.64 32.64h98a19.18 19.18 0 0 1 .53 4.35zm-351.68-185.55a18.85 18.85 0 0 1 -1.53 7.39c-4.13 9.84-16.29 16.47-30.25 16.47s-26.11-6.63-30.25-16.51a6.87 6.87 0 0 1 12.68-5.31c1.64 3.91 8.35 8.07 17.57 8.07s16-4.16 17.59-8.07a5.18 5.18 0 0 0 .44-2c0-3.22-3.34-6.54-8.51-8.47-.51-.19-2.75-.88-9.82-1.62l-.56-.08h-.32c-6.33-.67-10.49-1.43-13.07-2.38-10.8-4.08-17.55-12.26-17.55-21.44a18.69 18.69 0 0 1 1.53-7.4c4.16-9.83 16.32-16.42 30.27-16.42s26.12 6.63 30.26 16.5a6.87 6.87 0 1 1 -12.67 5.32c-1.64-3.92-8.37-8.08-17.59-8.08s-15.93 4.16-17.57 8.08a5 5 0 0 0 -.45 2c0 3.22 3.35 6.55 8.55 8.48.51.19 2.72.86 9.74 1.61l.58.07h.29c6.38.67 10.57 1.44 13.18 2.41 10.77 4.04 17.46 12.22 17.46 21.38zm79.11-48.58-24.91 67.93a6.87 6.87 0 0 1 -12.9 0l-24.88-67.93a6.87 6.87 0 0 1 12.9-4.73l18.45 50.33 18.45-50.33a6.87 6.87 0 0 1 12.91 4.73zm79.94 34.43v7.63a30.42 30.42 0 0 1 -30.38 30.38h-2.79a30.42 30.42 0 0 1 -30.38-30.38v-20.91a30.41 30.41 0 0 1 30.38-30.34h2.79a30.51 30.51 0 0 1 22.24 9.68 6.87 6.87 0 0 1 -10.06 9.32 16.49 16.49 0 0 0 -12.18-5.31h-2.79a16.65 16.65 0 0 0 -16.63 16.64v20.91a16.65 16.65 0 0 0 16.63 16.63h2.79a16.65 16.65 0 0 0 16.63-16.63v-.75h-11.15a6.88 6.88 0 0 1 0-13.75h18a6.88 6.88 0 0 1 6.9 6.88z"
            fill="#000000" data-original="#000000"></path>
    </g>
</svg>