<svg xmlns="http://www.w3.org/2000/svg" width="341.469" height="43.078" viewBox="0 0 341.469 43.078">
  <g id="NFJ_LABS" data-name="NFJ LABS" transform="translate(-17.185 -165.391)">
    <g id="Group_12" data-name="Group 12">
      <g id="Group_11" data-name="Group 11" transform="translate(12.701 207.75)">
        <g id="Group_10" data-name="Group 10">
          <path id="Path_6" data-name="Path 6" d="M34.25,0,16.766-20.219V0H4.484V-41.641H16.156L33.641-21.125V-41.641h12.3V0Zm0,0"/>
        </g>
      </g>
    </g>
    <g id="Group_15" data-name="Group 15">
      <g id="Group_14" data-name="Group 14" transform="translate(63.101 207.75)">
        <g id="Group_13" data-name="Group 13">
          <path id="Path_7" data-name="Path 7" d="M4.484-41.641H38.125v9.984H17.859v7.141H35.281v9.563H17.859V0H4.484Zm0,0"/>
        </g>
      </g>
    </g>
    <g id="Group_18" data-name="Group 18">
      <g id="Group_17" data-name="Group 17" transform="translate(103.457 207.75)">
        <g id="Group_16" data-name="Group 16">
          <path id="Path_8" data-name="Path 8" d="M35.891-14.469q0,7.816-4.453,11.5T18.641.719q-8.361,0-12.812-3.687t-4.437-11.5v-.547H13.922v.484a6.185,6.185,0,0,0,1.047,4.063,4.1,4.1,0,0,0,3.25,1.2,4.09,4.09,0,0,0,3.234-1.2,6.134,6.134,0,0,0,1.063-4.062V-41.641H35.891Zm0,0"/>
        </g>
      </g>
    </g>
    <g id="Group_21" data-name="Group 21">
      <g id="Group_20" data-name="Group 20" transform="translate(163.955 207.75)">
        <g id="Group_19" data-name="Group 19">
          <path id="Path_9" data-name="Path 9" d="M4.484-41.641H17.859v30.984H39.219V0H4.484Zm0,0" fill="#8c52ff"/>
        </g>
      </g>
    </g>
    <g id="Group_24" data-name="Group 24">
      <g id="Group_23" data-name="Group 23" transform="translate(204.311 207.75)">
        <g id="Group_22" data-name="Group 22">
          <path id="Path_10" data-name="Path 10" d="M32.375,0l-1.75-5.875H16.031L14.281,0H.609L15.8-41.641H31.344L46.531,0ZM18.828-15.187h9.016L23.484-30.016h-.25Zm0,0" fill="#8c52ff"/>
        </g>
      </g>
    </g>
    <g id="Group_27" data-name="Group 27">
      <g id="Group_26" data-name="Group 26" transform="translate(251.383 207.75)">
        <g id="Group_25" data-name="Group 25">
          <path id="Path_11" data-name="Path 11" d="M32.188-41.641a12.752,12.752,0,0,1,5.781,1.313,10.316,10.316,0,0,1,4.172,3.656,9.4,9.4,0,0,1,1.547,5.266q0,7.688-6.953,9.688v.234q7.922,1.817,7.922,10.406A10.506,10.506,0,0,1,43.047-5.3a10.743,10.743,0,0,1-4.375,3.906A13.438,13.438,0,0,1,32.563,0H4.484V-41.641ZM17.859-25.422h9.188a2.893,2.893,0,0,0,2.2-.937,3.245,3.245,0,0,0,.891-2.328V-29.3a3.156,3.156,0,0,0-.906-2.266,2.938,2.938,0,0,0-2.187-.937H17.859Zm0,15.734H28.016a2.894,2.894,0,0,0,2.2-.937,3.245,3.245,0,0,0,.891-2.328v-.609a3.251,3.251,0,0,0-.891-2.328,2.894,2.894,0,0,0-2.2-.937H17.859Zm0,0" fill="#8c52ff"/>
        </g>
      </g>
    </g>
    <g id="Group_30" data-name="Group 30">
      <g id="Group_29" data-name="Group 29" transform="translate(298.455 207.75)">
        <g id="Group_28" data-name="Group 28">
          <path id="Path_12" data-name="Path 12" d="M21.969-42.359q7.98,0,13.125,3.234a10.845,10.845,0,0,1,5.266,9.594v.719H27.844v-.234A3.888,3.888,0,0,0,26.5-32.062a5.823,5.823,0,0,0-4.047-1.219,8.5,8.5,0,0,0-4.094.8,2.255,2.255,0,0,0-1.422,1.922,2.586,2.586,0,0,0,1.938,2.422A37.712,37.712,0,0,0,25.109-26.5a65.493,65.493,0,0,1,8.266,2.141,14.156,14.156,0,0,1,5.656,3.672A9.779,9.779,0,0,1,41.516-13.8q0,7.377-5,10.953T23.172.719q-9.738,0-15.156-3.266T2.609-14.094H15.25q0,3.141,1.625,4.2a9.538,9.538,0,0,0,5.094,1.063,13.564,13.564,0,0,0,4.2-.547,2.187,2.187,0,0,0,1.672-2.25q0-1.5-1.859-2.25a35.988,35.988,0,0,0-6.016-1.609,70.238,70.238,0,0,1-8.406-2.266A14.271,14.271,0,0,1,5.75-21.656a10.567,10.567,0,0,1-2.484-7.391q0-6.844,5.3-10.078T21.969-42.359Zm0,0" fill="#8c52ff"/>
        </g>
      </g>
    </g>
    <g id="Group_33" data-name="Group 33">
      <g id="Group_32" data-name="Group 32" transform="translate(342.139 207.75)">
        <g id="Group_31" data-name="Group 31">
          <path id="Path_13" data-name="Path 13" d="M3.688,0V-12.047H16.516V0Zm0,0" fill="#8c52ff"/>
        </g>
      </g>
    </g>
  </g>
</svg>
