<svg xmlns="http://www.w3.org/2000/svg" xmlns:xlink="http://www.w3.org/1999/xlink" width="500" zoomAndPan="magnify"
    viewBox="0 0 375 374.999991" height="500" preserveAspectRatio="xMidYMid meet" version="1.0">
    <defs>
        <g />
    </defs>
    <g fill="#ffffff" fill-opacity="1">
        <g transform="translate(12.700861, 207.749986)">
            <g>
                <path
                    d="M 34.25 0 L 16.765625 -20.21875 L 16.765625 0 L 4.484375 0 L 4.484375 -41.640625 L 16.15625 -41.640625 L 33.640625 -21.125 L 33.640625 -41.640625 L 45.9375 -41.640625 L 45.9375 0 Z M 34.25 0 " />
            </g>
        </g>
    </g>
    <g fill="#ffffff" fill-opacity="1">
        <g transform="translate(63.100558, 207.749986)">
            <g>
                <path
                    d="M 4.484375 -41.640625 L 38.125 -41.640625 L 38.125 -31.65625 L 17.859375 -31.65625 L 17.859375 -24.515625 L 35.28125 -24.515625 L 35.28125 -14.953125 L 17.859375 -14.953125 L 17.859375 0 L 4.484375 0 Z M 4.484375 -41.640625 " />
            </g>
        </g>
    </g>
    <g fill="#ffffff" fill-opacity="1">
        <g transform="translate(103.456612, 207.749986)">
            <g>
                <path
                    d="M 35.890625 -14.46875 C 35.890625 -9.257812 34.40625 -5.425781 31.4375 -2.96875 C 28.46875 -0.507812 24.203125 0.71875 18.640625 0.71875 C 13.066406 0.71875 8.796875 -0.507812 5.828125 -2.96875 C 2.867188 -5.425781 1.390625 -9.257812 1.390625 -14.46875 L 1.390625 -15.015625 L 13.921875 -15.015625 L 13.921875 -14.53125 C 13.921875 -12.625 14.269531 -11.269531 14.96875 -10.46875 C 15.675781 -9.664062 16.757812 -9.265625 18.21875 -9.265625 C 19.664062 -9.265625 20.742188 -9.664062 21.453125 -10.46875 C 22.160156 -11.269531 22.515625 -12.625 22.515625 -14.53125 L 22.515625 -41.640625 L 35.890625 -41.640625 Z M 35.890625 -14.46875 " />
            </g>
        </g>
    </g>
    <g fill="#ffffff" fill-opacity="1">
        <g transform="translate(143.812665, 207.749986)">
            <g />
        </g>
    </g>
    <g fill="#8c52ff" fill-opacity="1">
        <g transform="translate(163.954761, 207.749986)">
            <g>
                <path
                    d="M 4.484375 -41.640625 L 17.859375 -41.640625 L 17.859375 -10.65625 L 39.21875 -10.65625 L 39.21875 0 L 4.484375 0 Z M 4.484375 -41.640625 " />
            </g>
        </g>
    </g>
    <g fill="#8c52ff" fill-opacity="1">
        <g transform="translate(204.310815, 207.749986)">
            <g>
                <path
                    d="M 32.375 0 L 30.625 -5.875 L 16.03125 -5.875 L 14.28125 0 L 0.609375 0 L 15.796875 -41.640625 L 31.34375 -41.640625 L 46.53125 0 Z M 18.828125 -15.1875 L 27.84375 -15.1875 L 23.484375 -30.015625 L 23.234375 -30.015625 Z M 18.828125 -15.1875 " />
            </g>
        </g>
    </g>
    <g fill="#8c52ff" fill-opacity="1">
        <g transform="translate(251.382799, 207.749986)">
            <g>
                <path
                    d="M 32.1875 -41.640625 C 34.289062 -41.640625 36.21875 -41.203125 37.96875 -40.328125 C 39.726562 -39.460938 41.117188 -38.242188 42.140625 -36.671875 C 43.171875 -35.097656 43.6875 -33.34375 43.6875 -31.40625 C 43.6875 -26.28125 41.367188 -23.050781 36.734375 -21.71875 L 36.734375 -21.484375 C 42.015625 -20.273438 44.65625 -16.804688 44.65625 -11.078125 C 44.65625 -8.898438 44.117188 -6.972656 43.046875 -5.296875 C 41.984375 -3.617188 40.523438 -2.316406 38.671875 -1.390625 C 36.816406 -0.460938 34.78125 0 32.5625 0 L 4.484375 0 L 4.484375 -41.640625 Z M 17.859375 -25.421875 L 27.046875 -25.421875 C 27.929688 -25.421875 28.664062 -25.734375 29.25 -26.359375 C 29.84375 -26.984375 30.140625 -27.757812 30.140625 -28.6875 L 30.140625 -29.296875 C 30.140625 -30.179688 29.835938 -30.9375 29.234375 -31.5625 C 28.628906 -32.1875 27.898438 -32.5 27.046875 -32.5 L 17.859375 -32.5 Z M 17.859375 -9.6875 L 28.015625 -9.6875 C 28.898438 -9.6875 29.632812 -10 30.21875 -10.625 C 30.8125 -11.25 31.109375 -12.023438 31.109375 -12.953125 L 31.109375 -13.5625 C 31.109375 -14.488281 30.8125 -15.265625 30.21875 -15.890625 C 29.632812 -16.515625 28.898438 -16.828125 28.015625 -16.828125 L 17.859375 -16.828125 Z M 17.859375 -9.6875 " />
            </g>
        </g>
    </g>
    <g fill="#8c52ff" fill-opacity="1">
        <g transform="translate(298.454784, 207.749986)">
            <g>
                <path
                    d="M 21.96875 -42.359375 C 27.289062 -42.359375 31.664062 -41.28125 35.09375 -39.125 C 38.53125 -36.96875 40.285156 -33.769531 40.359375 -29.53125 L 40.359375 -28.8125 L 27.84375 -28.8125 L 27.84375 -29.046875 C 27.84375 -30.253906 27.394531 -31.257812 26.5 -32.0625 C 25.613281 -32.875 24.265625 -33.28125 22.453125 -33.28125 C 20.671875 -33.28125 19.304688 -33.015625 18.359375 -32.484375 C 17.410156 -31.960938 16.9375 -31.320312 16.9375 -30.5625 C 16.9375 -29.46875 17.582031 -28.660156 18.875 -28.140625 C 20.164062 -27.617188 22.242188 -27.070312 25.109375 -26.5 C 28.460938 -25.820312 31.21875 -25.109375 33.375 -24.359375 C 35.53125 -23.609375 37.414062 -22.382812 39.03125 -20.6875 C 40.644531 -19 41.472656 -16.703125 41.515625 -13.796875 C 41.515625 -8.878906 39.847656 -5.226562 36.515625 -2.84375 C 33.191406 -0.46875 28.742188 0.71875 23.171875 0.71875 C 16.679688 0.71875 11.628906 -0.367188 8.015625 -2.546875 C 4.410156 -4.722656 2.609375 -8.570312 2.609375 -14.09375 L 15.25 -14.09375 C 15.25 -12 15.789062 -10.597656 16.875 -9.890625 C 17.96875 -9.179688 19.664062 -8.828125 21.96875 -8.828125 C 23.664062 -8.828125 25.066406 -9.007812 26.171875 -9.375 C 27.285156 -9.738281 27.84375 -10.488281 27.84375 -11.625 C 27.84375 -12.625 27.222656 -13.375 25.984375 -13.875 C 24.753906 -14.382812 22.75 -14.921875 19.96875 -15.484375 C 16.582031 -16.210938 13.78125 -16.96875 11.5625 -17.75 C 9.34375 -18.539062 7.40625 -19.84375 5.75 -21.65625 C 4.09375 -23.476562 3.265625 -25.941406 3.265625 -29.046875 C 3.265625 -33.609375 5.03125 -36.96875 8.5625 -39.125 C 12.09375 -41.28125 16.5625 -42.359375 21.96875 -42.359375 Z M 21.96875 -42.359375 " />
            </g>
        </g>
    </g>
    <g fill="#8c52ff" fill-opacity="1">
        <g transform="translate(342.138551, 207.749986)">
            <g>
                <path d="M 3.6875 0 L 3.6875 -12.046875 L 16.515625 -12.046875 L 16.515625 0 Z M 3.6875 0 " />
            </g>
        </g>
    </g>
</svg>