<svg xmlns="http://www.w3.org/2000/svg" width="59" height="59" viewBox="0 0 59 59">
    <g id="Group_33" data-name="Group 33" transform="translate(-1059 -924)">
        <g id="Ellipse_9" data-name="Ellipse 9" transform="translate(1059 924)" stroke="#000" stroke-width="1">
            <circle cx="29.5" cy="29.5" r="29.5" stroke="none" />
            <circle cx="29.5" cy="29.5" r="29" fill="none" />
        </g>
        <g id="Group_32" data-name="Group 32" transform="translate(1089.388 936.553) rotate(48)">
            <path id="Path_7" data-name="Path 7" d="M0,0H24V24H0Z" fill="none" />
            <path id="Path_8" data-name="Path 8"
                d="M13.06,8.11l1.415,1.415a7,7,0,0,1,0,9.9l-.354.353a7,7,0,0,1-9.9-9.9l1.415,1.415a5,5,0,1,0,7.071,7.071l.354-.354a5,5,0,0,0,0-7.07L11.646,9.525l1.415-1.414Zm6.718,6.011-1.414-1.414a5,5,0,1,0-7.071-7.071l-.354.354a5,5,0,0,0,0,7.07l1.415,1.415-1.415,1.414L9.525,14.475a7,7,0,0,1,0-9.9l.354-.353a7,7,0,1,1,9.9,9.9Z"
                fill="#fff" />
        </g>
    </g>
</svg>